<svg xmlns="http://www.w3.org/2000/svg" xmlns:xlink="http://www.w3.org/1999/xlink" width="300" height="363" viewBox="0 0 300 363">
  <defs>
    <filter id="Trazado_2752" x="0" y="0" width="300" height="363" filterUnits="userSpaceOnUse">
      <feOffset dx="1" dy="1" input="SourceAlpha"/>
      <feGaussianBlur stdDeviation="0.5" result="blur"/>
      <feFlood flood-opacity="0.161"/>
      <feComposite operator="in" in2="blur"/>
      <feComposite in="SourceGraphic"/>
    </filter>
  </defs>
  <g id="Grupo_1865" data-name="Grupo 1865" transform="translate(4019.5 -1999.5)">
    <g transform="matrix(1, 0, 0, 1, -4019.5, 1999.5)" filter="url(#Trazado_2752)">
      <path id="Trazado_2752-2" data-name="Trazado 2752" d="M0,0H297V360H0Z" transform="translate(0.5 0.5)" fill="rgba(255,255,255,0)"/>
    </g>
    <g id="Logo_CMSA-02" data-name="Logo CMSA-02" transform="translate(-4006 2013)">
      <path id="Trazado_2777" data-name="Trazado 2777" d="M76.7,161.79H57.87v92.89H76.7Zm37.65,0H95.54v92.89h18.81Zm37.66,0H133.18v92.89H152Zm18.83,18.58H265V161.78H170.84Zm0,37.15H265V199H170.84Zm0,37.16H265V236.1H170.84Zm75.32-111.47H265V50.32H246.16Zm-37.66,0h18.83V50.32H208.5Zm-37.66,0h18.82V50.32H170.84ZM152,124.63H57.87v18.58H152Zm0-37.16H57.87v18.58H152Zm0-37.16H57.87V68.89H152Zm90.41,252.37v-5.87c10.5-7.38,13.69-10.38,13.69-13.83a3.11,3.11,0,0,0-3.3-3.13c-1.82,0-3.67,1.14-4.8,3.7l-6.63-3.49c2.56-4.33,6.5-7.33,12.23-7.33,6.67,0,11.38,3.58,11.38,9.76,0,4.33-3.14,8.89-10.17,12.77H266v7.42Zm-15.08.53c-6.68,0-10.79-3.32-13-8.3l6.89-2.7a6.23,6.23,0,0,0,6.14,4.07c2.59,0,3.8-1.16,3.8-2.7,0-1.72-1.48-2.66-4.12-2.66H224.3v-6.35H227c2.64,0,3.53-1.15,3.53-2.52,0-1.59-1.25-2.38-3.32-2.38a6.24,6.24,0,0,0-5.91,3.71l-6.3-3.14a14.06,14.06,0,0,1,12.9-7.51c6.68,0,10.88,3.41,10.88,8.21a6.6,6.6,0,0,1-4,6.2,6.92,6.92,0,0,1,5,6.7c0,4.86-4.39,9.37-12.36,9.37m-27.66-.53V291H189.23v11.66h-8.52v-29.4h8.52V283.6h10.45V273.26h8.56v29.42Zm-31.65-22v22h-8.45v-22h-8.84v-7.43h26.14v7.43ZM133.77,303.2c-8.18,0-13.4-4.15-13.4-12.1V273.26h8.5v17.85c0,3.08,1.56,4.55,4.9,4.55s4.95-1.47,4.95-4.55V273.26h8.46v17.85c0,7.95-5.24,12.1-13.41,12.1m-32.21-22.89c-4.52,0-6.76,3.63-6.76,7.65s2.24,7.63,6.76,7.63,6.86-3.52,6.86-7.63-2.28-7.65-6.86-7.65m-.2,22.89c-9.79,0-15.52-6.76-15.52-15.24s5.73-15.24,15.52-15.24S116.9,279.57,116.9,288s-5.82,15.24-15.62,15.24M76.81,282.63a8.25,8.25,0,0,0-7-3.31c-2.19,0-3.53.79-3.53,2.11,0,1.77,2.73,2.17,5.68,2.61,6.48,1,11.82,2.87,11.82,9.06,0,5.64-4.53,10.11-13,10.11-6.91,0-12.24-2.91-14.65-8L62.71,292A9,9,0,0,0,71,296.55c2.77,0,4.48-.89,4.48-2.36,0-2.07-3.4-2.29-5.78-2.69-5.9-.93-11.86-3-11.86-9.45,0-5.78,4.75-9.32,12.08-9.32,4.81,0,10.09,1.51,13.25,6.32Z" transform="translate(-56.13 -50.31)" fill="#fff20f"/>
      <path id="Trazado_2778" data-name="Trazado 2778" d="M82.39,354.65a10,10,0,0,0-8.66-4.4c-6.58,0-10.89,4.8-10.89,12.31S67.2,375,73.64,375a10.26,10.26,0,0,0,8.75-4.45L85,372.42a13.45,13.45,0,0,1-11.24,5.51c-8.62,0-14.22-6.57-14.22-15.33s5.6-15.33,14.17-15.33a13.26,13.26,0,0,1,11.16,5.47Z" transform="translate(-56.13 -50.31)" fill="#fff20f"/>
      <path id="Trazado_2779" data-name="Trazado 2779" d="M110,366.6H91.55c.22,5.33,3.51,8.53,8.4,8.53a8.91,8.91,0,0,0,6.93-3.11l2,2a11.48,11.48,0,0,1-8.93,3.91c-7.16,0-11.43-5.11-11.43-11.91s4.18-12,10.94-12c6.53,0,10.66,5.07,10.66,11.29a7.34,7.34,0,0,1-.12,1.29Zm-2.93-2.44c-.44-4.93-3.78-7.47-7.73-7.47-4.45,0-7.38,3.16-7.74,7.47Z" transform="translate(-56.13 -50.31)" fill="#fff20f"/>
      <path id="Trazado_2780" data-name="Trazado 2780" d="M127.18,357.49a5.76,5.76,0,0,0-2.66-.67c-3.2,0-6.36,2.85-6.36,8.32V377.4h-2.84V354.51h2.84v4c1.6-2.49,3.91-4.44,6.85-4.44a5.81,5.81,0,0,1,3.2.89Z" transform="translate(-59.274 -50.31)" fill="#fff20f"/>
      <path id="Trazado_2781" data-name="Trazado 2781" d="M143.76,357.49a5.8,5.8,0,0,0-2.67-.67c-3.2,0-6.35,2.85-6.35,8.32V377.4h-2.85V354.51h2.85v4c1.6-2.49,3.91-4.44,6.84-4.44a5.79,5.79,0,0,1,3.2.89Z" transform="translate(-60.155 -50.31)" fill="#fff20f"/>
      <path id="Trazado_2782" data-name="Trazado 2782" d="M157.84,377.93c-6.75,0-10.93-5.2-10.93-11.95s4.18-12,10.93-12,11,5.16,11,12S164.6,377.93,157.84,377.93Zm0-21.24c-5,0-7.91,4.09-7.91,9.29s2.89,9.24,7.91,9.24,7.91-4.13,7.91-9.24S162.87,356.69,157.84,356.69Z" transform="translate(-61.124 -50.31)" fill="#fff20f"/>
      <path id="Trazado_2783" data-name="Trazado 2783" d="M213.52,377.4V351.05L203,377.4h-2.9L189.53,351v26.4h-3V347.8h4.85l10.26,25.69,10.31-25.69h4.67v29.6Z" transform="translate(-63.54 -50.31)" fill="#fff20f"/>
      <path id="Trazado_2784" data-name="Trazado 2784" d="M242.49,377.76a4.05,4.05,0,0,1-4.35-3.92,9.37,9.37,0,0,1-8.09,4.09c-4.71,0-7.73-2.62-7.73-6.89,0-5.28,4.62-6.35,7.73-6.79,3.82-.54,7.87-.58,7.87-3.87,0-2.8-3-3.73-5.69-3.73a11.33,11.33,0,0,0-7.11,2.49l-1.6-2.14a13.79,13.79,0,0,1,8.8-3c5,0,8.57,2.22,8.57,7.29v11.24c0,1.91.54,2.8,2.05,2.8a3.67,3.67,0,0,0,1.42-.26l.4,2.35a7,7,0,0,1-2.27.34ZM238.05,364c-1.78,2.23-4.31,2.14-7.47,2.67-3,.49-5.28,1.2-5.28,4.27s2.35,4.35,5.28,4.35c3.69,0,7.47-1.95,7.47-6.89Z" transform="translate(-65.29 -50.31)" fill="#fff20f"/>
      <path id="Trazado_2785" data-name="Trazado 2785" d="M260.93,376.56a7.2,7.2,0,0,1-4.48,1.37c-2.58,0-4.62-.88-5.78-2.93a8.08,8.08,0,0,1-.84-4.27V357.14h-4.05v-2.63h4.05V347.8h2.84v6.71h7.73v2.63h-7.73v13.59c0,3,1.24,4.54,3.91,4.54a4.8,4.8,0,0,0,3-.94Z" transform="translate(-66.292 -50.31)" fill="#fff20f"/>
      <path id="Trazado_2786" data-name="Trazado 2786" d="M274.4,377.93c-6.75,0-10.93-5.2-10.93-11.95s4.18-12,10.93-12,11,5.16,11,12S281.15,377.93,274.4,377.93Zm0-21.24c-5,0-7.91,4.09-7.91,9.29s2.89,9.24,7.91,9.24,7.91-4.13,7.91-9.24S279.42,356.69,274.4,356.69Z" transform="translate(-67.535 -50.31)" fill="#fff20f"/>
      <path id="Trazado_2787" data-name="Trazado 2787" d="M298.53,377.93c-4.36,0-7.65-1.77-9.65-4.62l2.27-1.82a8.81,8.81,0,0,0,7.51,3.78c3.33,0,5.91-1.43,5.91-4.36,0-2.62-2-3.06-6.8-4-4.18-.85-7.73-2.09-7.73-6.4,0-4.58,4-6.49,8.18-6.49a12,12,0,0,1,8.71,3.6l-2.05,2.09a8.4,8.4,0,0,0-6.71-3c-2.62,0-5.38.93-5.38,3.55s2.76,3.33,5.92,4c4.26.84,8.75,1.73,8.75,6.66C307.46,375,304.17,377.93,298.53,377.93Z" transform="translate(-70.165 -50.31)" fill="#fff20f"/>
      <path id="Trazado_2788" data-name="Trazado 2788" d="M322.21,377.93c-6.75,0-10.93-5.2-10.93-11.95s4.18-12,10.93-12,11,5.16,11,12S329,377.93,322.21,377.93Zm0-21.24c-5,0-7.91,4.09-7.91,9.29s2.89,9.24,7.91,9.24,7.91-4.13,7.91-9.24S327.23,356.69,322.21,356.69Z" transform="translate(-70.165 -50.31)" fill="#fff20f"/>
    </g>
  </g>
</svg>
